<svg width="82" height="56" viewBox="0 0 82 56" fill="none" xmlns="http://www.w3.org/2000/svg">
<g clip-path="url(#clip0_244_151)">
<path d="M54.3488 50.2069H22.1686V48.2759H53.3954V2.89655C53.3954 2.64048 53.2949 2.3949 53.1161 2.21383C52.9373 2.03276 52.6947 1.93103 52.4419 1.93103H2.86047C2.60758 1.93103 2.36506 2.03276 2.18625 2.21383C2.00743 2.3949 1.90698 2.64048 1.90698 2.89655V47.3103C1.90698 47.5664 2.00743 47.812 2.18625 47.9931C2.36506 48.1741 2.60758 48.2759 2.86047 48.2759H10.25V50.2069H2.86047C2.10182 50.2069 1.37425 49.9017 0.837811 49.3585C0.30137 48.8153 0 48.0786 0 47.3103L0 2.89655C0 2.12834 0.30137 1.39159 0.837811 0.84838C1.37425 0.305172 2.10182 0 2.86047 0L52.4419 0C53.2005 0 53.9281 0.305172 54.4645 0.84838C55.001 1.39159 55.3023 2.12834 55.3023 2.89655V49.2414C55.3023 49.4975 55.2019 49.743 55.0231 49.9241C54.8442 50.1052 54.6017 50.2069 54.3488 50.2069Z" fill="#A89B68"/>
<path d="M54.3496 48.2759H61.024V50.2069H54.3496V48.2759Z" fill="#A89B68"/>
<path d="M81.0473 50.2069H72.4659V48.2759H80.0955V34.0742L70.3205 18.7931C70.2346 18.657 70.1163 18.5449 69.9765 18.4672C69.8367 18.3895 69.6798 18.3486 69.5203 18.3483H54.3496V16.4138H69.5203C69.9979 16.4138 70.4679 16.5347 70.8876 16.7657C71.3072 16.9967 71.663 17.3303 71.9227 17.7362L81.8492 33.2759C81.9474 33.4301 82 33.6096 82.0008 33.7931V49.2414C82.0008 49.3682 81.9761 49.4938 81.9282 49.6109C81.8803 49.728 81.81 49.8345 81.7215 49.9241C81.633 50.0138 81.5278 50.0849 81.4122 50.1334C81.2965 50.1819 81.1725 50.2069 81.0473 50.2069Z" fill="#A89B68"/>
<path d="M0.953125 36.6897H54.3485V38.6207H0.953125V36.6897Z" fill="#A89B68"/>
<path d="M16.2096 55.9999C14.6649 56 13.1681 55.4577 11.9741 54.4655C10.7801 53.4732 9.96279 52.0924 9.66148 50.5584C9.36016 49.0243 9.59346 47.432 10.3216 46.0526C11.0498 44.6732 12.2278 43.5922 13.6549 42.9937C15.0819 42.3952 16.6698 42.3164 18.1479 42.7705C19.6259 43.2247 20.9027 44.1838 21.7607 45.4844C22.6187 46.785 23.0048 48.3466 22.8532 49.9031C22.7016 51.4597 22.0217 52.9148 20.9293 54.0206C19.6772 55.2876 17.9797 55.9995 16.2096 55.9999ZM16.2096 44.4137C15.1066 44.4138 14.0378 44.8012 13.1852 45.5098C12.3327 46.2184 11.7491 47.2044 11.534 48.2998C11.3189 49.3953 11.4855 50.5323 12.0055 51.5173C12.5255 52.5023 13.3667 53.2742 14.3858 53.7016C15.4048 54.1289 16.5386 54.1852 17.5941 53.861C18.6495 53.5367 19.5613 52.8519 20.174 51.9232C20.7868 50.9945 21.0625 49.8794 20.9544 48.7679C20.8462 47.6564 20.3608 46.6172 19.5808 45.8275C19.1381 45.3793 18.6125 45.0237 18.0341 44.7811C17.4556 44.5385 16.8356 44.4137 16.2096 44.4137Z" fill="#A89B68"/>
<path d="M66.7443 55.9999C65.2001 55.9998 63.7038 55.4575 62.5102 54.4655C61.3166 53.4734 60.4996 52.093 60.1985 50.5594C59.8973 49.0258 60.1306 47.4339 60.8586 46.0549C61.5866 44.676 62.7643 43.5953 64.1909 42.997C65.6176 42.3987 67.205 42.3198 68.6826 42.7738C70.1602 43.2278 71.4367 44.1866 72.2945 45.4867C73.1523 46.7869 73.5384 48.348 73.387 49.9041C73.2355 51.4602 72.556 52.915 71.464 54.0206C70.2119 55.2876 68.5144 55.9995 66.7443 55.9999ZM66.7443 44.4137C65.6413 44.4138 64.5725 44.8011 63.7199 45.5097C62.8674 46.2183 62.2838 47.2044 62.0687 48.2998C61.8536 49.3952 62.0202 50.5323 62.5402 51.5173C63.0602 52.5022 63.9014 53.2742 64.9205 53.7015C65.9395 54.1289 67.0733 54.1852 68.1288 53.8609C69.1842 53.5366 70.096 52.8518 70.7087 51.9231C71.3215 50.9944 71.5972 49.8794 71.4891 48.7679C71.3809 47.6564 70.8955 46.6172 70.1155 45.8275C69.6728 45.3792 69.1472 45.0236 68.5688 44.7811C67.9903 44.5385 67.3703 44.4137 66.7443 44.4137Z" fill="#A89B68"/>
<path d="M74.3726 34.7586H61.0238C60.7709 34.7586 60.5284 34.6568 60.3496 34.4758C60.1708 34.2947 60.0703 34.0491 60.0703 33.7931V24.1379C60.0703 23.8818 60.1708 23.6362 60.3496 23.4552C60.5284 23.2741 60.7709 23.1724 61.0238 23.1724H68.6517C68.8172 23.1722 68.9799 23.2157 69.1238 23.2985C69.2677 23.3813 69.3878 23.5007 69.4724 23.6448L75.1933 33.2999C75.2793 33.4466 75.3255 33.6137 75.327 33.7843C75.3285 33.9549 75.2854 34.1228 75.202 34.271C75.1186 34.4192 74.9979 34.5424 74.8523 34.6281C74.7066 34.7137 74.5411 34.7587 74.3726 34.7586ZM61.9773 32.8275H72.6853L68.1069 25.1034H61.9773V32.8275Z" fill="#A89B68"/>
<path d="M14.14 12.33H10.8V19H11.82V15.94H14.06V14.98H11.82V13.29H14.14V12.33ZM15.302 12.33V19H16.322V16.27H16.502L18.412 19H19.642L17.562 16.15C18.452 15.95 19.042 15.25 19.042 14.29C19.042 14 18.982 13.21 18.252 12.72C17.822 12.43 17.302 12.33 16.492 12.33H15.302ZM16.322 13.27H16.672C17.172 13.27 18.062 13.36 18.062 14.3C18.062 15.36 16.922 15.39 16.642 15.39H16.322V13.27ZM24.3238 12.33H20.6438V19H24.3238V18.04H21.6638V15.94H24.2438V14.98H21.6638V13.29H24.3238V12.33ZM29.3238 12.33H25.6438V19H29.3238V18.04H26.6638V15.94H29.2438V14.98H26.6638V13.29H29.3238V12.33ZM14.05 21.897C13.924 21.645 13.753 21.438 13.591 21.294C13.402 21.132 13.033 20.889 12.385 20.889C11.26 20.889 10.63 21.663 10.63 22.473C10.63 23.373 11.359 23.787 11.854 23.994L12.43 24.237C12.826 24.399 13.294 24.651 13.294 25.263C13.294 25.866 12.862 26.271 12.304 26.271C11.944 26.271 11.692 26.127 11.521 25.911C11.377 25.722 11.269 25.443 11.269 25.146L10.36 25.344C10.396 25.758 10.54 26.154 10.864 26.514C11.17 26.856 11.584 27.117 12.277 27.117C13.402 27.117 14.212 26.334 14.212 25.191C14.212 24.507 13.906 23.877 12.799 23.427L12.196 23.184C11.611 22.95 11.548 22.635 11.548 22.455C11.548 22.068 11.836 21.735 12.394 21.735C12.655 21.735 12.853 21.798 13.042 21.951C13.177 22.068 13.258 22.194 13.312 22.329L14.05 21.897ZM16.2786 20.997H15.3606V27H16.2786V24.237H18.8526V27H19.7706V20.997H18.8526V23.373H16.2786V20.997ZM21.2141 20.997V27H22.1321V20.997H21.2141ZM23.5696 20.997V27H24.4876V24.561H24.9016C25.3426 24.561 25.8916 24.498 26.3686 24.093C26.8636 23.67 26.9536 23.13 26.9536 22.779C26.9536 22.23 26.7106 21.654 26.2066 21.321C25.7746 21.033 25.2616 20.997 24.8926 20.997H23.5696ZM24.4876 21.843H24.8926C25.9366 21.843 26.0716 22.437 26.0716 22.77C26.0716 23.328 25.6936 23.715 24.9016 23.715H24.4876V21.843ZM27.8938 20.997V27H28.8118V24.561H29.2258C29.6668 24.561 30.2158 24.498 30.6928 24.093C31.1878 23.67 31.2778 23.13 31.2778 22.779C31.2778 22.23 31.0348 21.654 30.5308 21.321C30.0988 21.033 29.5858 20.997 29.2168 20.997H27.8938ZM28.8118 21.843H29.2168C30.2608 21.843 30.3958 22.437 30.3958 22.77C30.3958 23.328 30.0178 23.715 29.2258 23.715H28.8118V21.843ZM32.218 20.997V27H33.136V20.997H32.218ZM35.4915 27V22.806L39.8475 27.369V20.997H38.9295V25.155L34.5735 20.592V27H35.4915ZM44.3934 24.723H45.8874C45.8514 25.065 45.7164 25.416 45.3834 25.74C44.9964 26.118 44.5644 26.271 44.0424 26.271C43.4664 26.271 42.9534 26.109 42.5394 25.668C42.1434 25.245 41.9184 24.642 41.9184 24.039C41.9184 23.391 42.1614 22.752 42.5574 22.356C42.8544 22.059 43.3584 21.735 44.1414 21.735C44.5104 21.735 44.8704 21.798 45.2034 21.996C45.4914 22.158 45.7614 22.428 45.9414 22.68L46.6704 22.167C46.4994 21.897 46.1934 21.546 45.6984 21.267C45.2304 21.006 44.6724 20.889 44.1324 20.889C43.2054 20.889 42.3864 21.267 41.8734 21.789C41.3784 22.284 41.0004 23.094 41.0004 24.03C41.0004 24.894 41.3064 25.695 41.8914 26.298C42.4404 26.865 43.0614 27.117 43.9344 27.117C44.6184 27.117 45.3564 26.955 45.9774 26.352C46.5624 25.785 46.8684 24.948 46.8684 23.922V23.877H44.3934V24.723Z" fill="#A89B68"/>
</g>
<defs>
<clipPath id="clip0_244_151">
<rect width="82" height="56" fill="white"/>
</clipPath>
</defs>
</svg>
