<svg width="60" height="60" viewBox="0 0 60 60" fill="none" xmlns="http://www.w3.org/2000/svg">
<path d="M58.1424 2.01045C57.5866 1.55222 56.6941 0.869552 55.4694 0.645911C54.2457 0.423309 52.7075 0.741803 51.2536 2.02529L43.3135 9.96535L12.8517 9.37376C12.6315 9.36747 12.4092 9.45466 12.2524 9.60939L8.18271 13.6791C7.77148 14.1028 8.03969 14.9505 8.61933 15.0607L33.3776 20.0135L24.2031 30.2062L17.1133 28.5684C16.836 28.505 16.5275 28.5974 16.3323 28.805L13.4246 31.7127C13.0715 32.0658 13.1579 32.7483 13.589 33.0029L22.1339 38.1312L27.2622 46.676C27.5168 47.1071 28.1992 47.1935 28.5523 46.8405L31.46 43.9328C31.6667 43.7365 31.7601 43.4291 31.6966 43.1517L30.0588 36.062L40.2516 26.8875L45.2043 51.6457C45.3146 52.2254 46.1622 52.4936 46.5859 52.0823L50.6557 48.0126C50.8104 47.8558 50.8976 47.6336 50.8913 47.4133L50.2976 16.9495L58.2377 9.0094C59.5212 7.55552 59.8407 6.0162 59.6171 4.79357C59.3945 3.56989 58.7118 2.67745 58.2525 2.12058C58.2203 2.08006 58.184 2.04369 58.1434 2.01148L58.1424 2.01045ZM57.0334 3.22755C57.4157 3.7013 57.8615 4.35478 57.9967 5.10062C58.1361 5.86308 58.0159 6.74804 57.0345 7.88104L48.8961 16.0194C48.7414 16.1762 48.6542 16.3985 48.6605 16.6187L49.2531 47.0816L46.5095 49.8252L41.5744 25.1594C41.4652 24.587 40.6415 24.3115 40.2105 24.7051L28.5815 35.1704C28.3614 35.3656 28.2607 35.6845 28.3272 35.9691L29.9661 43.0952L28.1311 44.9301L23.4393 37.1125C23.3686 36.9941 23.2668 36.8923 23.1484 36.8216L15.3308 32.1297L17.1657 30.2948L24.2918 31.9337C24.5785 32.0002 24.8963 31.8985 25.0905 31.6794L35.5558 20.0504C35.9483 19.6205 35.6739 18.7957 35.1015 18.6865L10.4357 13.7534L13.1793 11.0098L43.6422 11.6025C43.8634 11.6077 44.0847 11.5216 44.2415 11.3668L52.3819 3.22635C53.5149 2.24504 54.3999 2.12478 55.1624 2.26417C55.9072 2.40043 56.5627 2.84621 57.0354 3.22755L57.0334 3.22755ZM9.87627 23.4768C9.5542 23.2274 9.0442 23.2678 8.76797 23.5669L1.20903 31.1258C0.897492 31.4291 0.893484 31.99 1.20103 32.2975C1.50857 32.605 2.06948 32.601 2.3727 32.2895L9.93164 24.7306C10.2806 24.4066 10.2524 23.7677 9.87627 23.4768ZM36.6407 50.2412C36.3186 49.9919 35.8086 50.0322 35.5324 50.3313L27.9735 57.8903C27.6619 58.1935 27.6579 58.7544 27.9655 59.0619C28.273 59.3695 28.8339 59.3655 29.1371 59.0539L36.6961 51.495C37.045 51.171 37.0168 50.5322 36.6407 50.2412ZM8.13569 36.8541C7.81465 36.6037 7.30361 36.6451 7.02739 36.9442L0.631525 43.3401C0.319984 43.6433 0.315972 44.2042 0.623515 44.5117C0.931056 44.8193 1.49197 44.8153 1.7952 44.5037L8.19106 38.1079C8.53999 37.7839 8.51178 37.145 8.13569 36.8541ZM23.2634 51.9818C22.9424 51.7314 22.4313 51.7728 22.1551 52.0719L15.7593 58.4678C15.4477 58.771 15.4437 59.3319 15.7512 59.6395C16.0588 59.947 16.6197 59.943 16.9229 59.6315L23.3188 53.2356C23.6677 52.9116 23.6395 52.2728 23.2634 51.9818Z" fill="#A89B68"/>
</svg>
