<svg width="113" height="52" viewBox="0 0 113 52" fill="none" xmlns="http://www.w3.org/2000/svg">
<path fill-rule="evenodd" clip-rule="evenodd" d="M112.975 18.8427C112.896 19.3924 112.546 19.875 112.063 20.1142C111.88 20.2024 111.689 20.2527 111.493 20.2611C111.385 20.9368 111.023 21.4278 110.423 21.7215C109.732 22.0573 108.829 22.095 107.959 22.1244C106.811 22.1706 105.229 22.2671 104.147 22.6322C103.09 24.122 104.921 24.7095 105.828 23.4379C106.773 23.824 108.084 24.6801 107.327 25.8132C107.26 25.9139 107.189 26.023 107.119 26.1657C106.944 26.5182 106.96 26.9421 106.981 27.3911C107.002 27.857 107.019 28.3354 106.84 28.797C106.702 29.1453 106.478 29.3971 106.178 29.544C105.712 29.7706 105.154 29.716 104.613 29.6615C104.368 29.6363 104.139 29.6153 103.926 29.6195H103.652L103.573 29.3593C103.485 29.0572 103.464 28.8222 103.452 28.6501C103.439 28.5284 103.435 28.4445 103.402 28.3731C103.373 28.3354 103.344 28.2976 103.315 28.2556C103.252 28.2011 103.161 28.1423 103.023 28.0668L103.007 28.0584C102.832 27.9619 102.707 27.9073 102.624 27.8779C102.586 27.366 102.503 26.8582 102.341 26.3588C102.216 25.9937 102.041 25.6412 101.829 25.3138C101.612 24.9907 101.35 24.6969 101.063 24.4367C100.78 24.1765 100.48 23.9415 100.189 23.7149C99.8933 23.4883 99.6061 23.2617 99.3397 23.0225C99.0734 22.7833 98.8237 22.5357 98.628 22.2545C98.5282 22.1202 98.4366 21.9691 98.3658 21.8265C98.2868 21.667 98.2243 21.5075 98.166 21.3438C98.0537 21.0165 97.9871 20.6766 97.9704 20.3325C97.9496 19.9841 97.9829 19.6358 98.0453 19.2875C98.1702 18.5867 98.4408 17.9026 98.7071 17.2102C98.9818 16.522 99.2732 15.8211 99.4729 15.0867C99.6686 14.3565 99.7684 13.5718 99.6186 12.8331C99.6311 13.5843 99.4563 14.3104 99.1899 14.9944C98.9319 15.6826 98.5906 16.3373 98.2701 17.0214C97.9496 17.697 97.6458 18.4062 97.4793 19.1742C97.3961 19.5603 97.3586 19.959 97.3711 20.3618C97.3877 20.7647 97.4585 21.1634 97.5875 21.5453C97.6541 21.7341 97.729 21.923 97.8164 22.0992C97.9122 22.2881 98.0204 22.4559 98.1411 22.6196C98.3825 22.9427 98.6655 23.2197 98.961 23.4673C99.5562 23.9583 100.189 24.3528 100.751 24.8018C101.308 25.2467 101.766 25.809 102.062 26.4721C102.278 26.9337 102.445 27.4667 102.553 27.9787C102.603 28.1843 102.649 28.3941 102.686 28.6081C102.853 29.2964 102.902 29.8126 102.062 30.6813C101.845 30.9037 101.554 31.0925 101.275 31.2772C101.134 31.3695 101.005 31.4576 100.884 31.5416C100.647 31.7514 100.426 31.9864 100.276 32.2928C100.276 32.3221 100.276 32.3515 100.276 32.3809L100.314 33.1698L99.6894 32.6872C99.1566 32.276 98.9111 31.6968 98.6697 31.1387C98.4949 30.7316 98.3367 30.3581 98.087 30.0853C97.7998 30.8491 97.1796 31.6801 96.7218 32.1207C96.5179 32.3179 96.3014 32.5446 96.0933 32.7628C95.7521 33.1153 95.4024 33.4846 95.0736 33.7616L94.6741 34.1015L94.4909 33.6063C94.3952 33.3377 94.3994 32.9055 94.4077 32.4103C94.4077 32.2718 94.4077 32.0955 94.4077 31.9277C94.5326 31.5667 94.6116 31.1849 94.6574 30.8072C94.7365 30.0854 94.6866 29.3384 94.4576 28.6291C94.3994 28.4529 94.3245 28.2766 94.2454 28.1171C94.1663 27.9535 94.0789 27.7898 93.9915 27.6303C93.8125 27.3156 93.6086 27.0092 93.4005 26.7155C92.976 26.1238 92.5015 25.5782 92.0104 25.0536C91.0364 23.9877 89.9127 23.0686 88.7889 22.1874L87.095 20.8864C86.8119 20.6682 86.5372 20.45 86.2626 20.2276L85.4301 19.5603C84.323 18.679 83.2451 17.76 82.4293 16.6395C82.0173 16.0855 81.676 15.477 81.4304 14.8349C81.1848 14.1928 81.0267 13.5088 80.9476 12.8164C80.8685 12.1239 80.8768 11.4189 80.9351 10.7139C80.9642 10.3614 81.0059 10.0088 81.06 9.66053C81.1141 9.3164 81.1932 8.97648 81.3014 8.64075C81.5095 7.97349 81.8341 7.33981 82.2919 6.80684C82.7456 6.27807 83.3449 5.86261 84.015 5.6234C83.6696 5.71153 83.3366 5.85002 83.0245 6.02627C82.7123 6.20673 82.4251 6.43334 82.1671 6.68934C81.651 7.20971 81.2764 7.85599 81.0183 8.54003C80.8893 8.88416 80.7894 9.23667 80.7145 9.59338C80.6438 9.95009 80.5813 10.3068 80.5356 10.6677C80.4398 11.3895 80.4149 12.1239 80.4731 12.8583C80.5272 13.5927 80.6729 14.3229 80.9268 15.0196C81.1765 15.7162 81.5344 16.3751 81.9548 16.9752C82.3835 17.5795 82.8829 18.1209 83.4074 18.6203C83.9318 19.1238 84.4895 19.5855 85.0431 20.0345L85.8838 20.7018C86.1627 20.9242 86.4457 21.1466 86.7329 21.3648L88.4393 22.6532C89.0095 23.0812 89.5672 23.5135 90.1083 23.9667C90.6494 24.4241 91.1696 24.8942 91.6691 25.3936C92.1685 25.8971 92.6471 26.4133 93.0842 26.9673C93.3006 27.2401 93.5045 27.5296 93.6918 27.8234C93.875 28.1213 94.0539 28.4277 94.1788 28.7424C94.4327 29.3845 94.5201 30.0979 94.4909 30.803C94.4785 31.1555 94.4285 31.508 94.3453 31.8521C94.3453 31.8689 94.312 31.9151 94.3078 31.9318H94.312C94.2912 31.9654 94.2662 31.9948 94.2412 32.0326C93.9873 32.4354 93.8375 32.9222 93.6793 33.4384C93.4712 34.1141 93.259 34.8149 92.7803 35.3689C92.5265 35.6584 92.2226 35.9186 91.923 36.1746C91.8064 36.2753 91.6899 36.376 91.5775 36.4726C91.4485 36.5565 91.3111 36.6236 91.1738 36.695C91.1738 36.716 91.1696 36.7705 91.1571 36.9048L91.1738 36.695C91.1488 36.7076 91.1114 36.7495 91.0864 36.7621C91.0073 36.7999 90.9324 36.8377 90.8533 36.8754C90.5162 37.0307 90.1707 37.1776 89.8253 37.2951C89.6505 37.358 89.4757 37.4084 89.2967 37.4546C89.2634 37.463 89.2301 37.4672 89.1968 37.4756C89.509 37.0979 89.7462 36.653 89.8835 36.183C90.0667 35.5661 90.0917 34.9156 90.0251 34.2861C89.9543 33.6566 89.7961 33.0397 89.5672 32.4564C89.3342 31.8731 89.0386 31.3149 88.6849 30.7946C88.5059 30.5344 88.3103 30.2868 88.0939 30.0476C87.8816 29.8168 87.661 29.5985 87.4362 29.3887C86.9784 28.9691 86.504 28.5788 86.0128 28.2095C85.0347 27.4667 84.0192 26.8078 83.0702 26.0818C82.1213 25.3558 81.2306 24.5626 80.5231 23.61C80.3483 23.375 80.1859 23.1274 80.0361 22.8756C79.8863 22.6196 79.7448 22.3594 79.6157 22.0908C79.3535 21.5537 79.1329 20.9997 78.9498 20.429C78.7708 19.8582 78.6168 19.2749 78.5086 18.6832C78.3963 18.0915 78.3255 17.4914 78.2922 16.8913C78.2256 15.6868 78.3172 14.4656 78.646 13.2906C78.2131 14.4321 78.03 15.6659 78.0258 16.8955C78.0258 17.5124 78.0674 18.1293 78.1549 18.7378C78.2381 19.3505 78.363 19.9548 78.5336 20.5507C78.7001 21.1466 78.9082 21.7299 79.1621 22.2965C79.2869 22.5776 79.4284 22.863 79.5824 23.1316C79.7406 23.4086 79.9029 23.6688 80.086 23.9247C80.4482 24.4325 80.8602 24.9068 81.3014 25.3432C81.7467 25.7796 82.2212 26.1741 82.704 26.5476C83.6738 27.2988 84.6893 27.9703 85.6507 28.6837C86.0461 28.9816 86.3125 29.1537 87.0367 29.8126C87.2531 30.0098 87.4654 30.2196 87.6693 30.4337C87.8649 30.6435 88.0522 30.8701 88.2229 31.1051C88.5642 31.5793 88.8513 32.0997 89.0803 32.6411C89.305 33.1824 89.4798 33.749 89.5631 34.3281C89.6463 34.9072 89.6338 35.499 89.4965 36.0571C89.3591 36.6152 89.0761 37.1356 88.6682 37.5511L88.381 37.8407L88.7806 37.8239C88.9929 37.8155 89.1802 37.7651 89.3674 37.7106C89.5547 37.656 89.7337 37.5847 89.9085 37.5133C90.2581 37.3664 90.5994 37.2028 90.9324 37.0181C91.0031 36.9762 91.0781 36.9342 91.153 36.8922C91.1904 37.0517 91.232 37.2112 91.2695 37.379C91.4485 38.0841 91.5317 38.8185 91.6108 39.5319C91.6774 40.0942 91.744 40.6817 91.8564 41.2315C92.0062 41.9743 92.5223 42.7423 93.0217 43.4893C93.6419 44.4167 94.2828 45.3735 94.3328 46.3891C94.6741 46.4772 95.4774 46.5738 95.8977 46.6199C96.3972 46.6787 96.5845 46.7039 96.6885 46.7332C97.4876 46.985 97.6291 47.0606 97.8248 47.56C97.8705 47.6775 97.9288 47.8285 98.0412 48.0384C98.0828 48.1181 98.1411 48.2146 98.2035 48.3195C98.3991 48.6427 98.6197 49.0036 98.6905 49.3645C98.7987 49.9226 98.703 50.3801 98.4158 50.7368C98.0079 51.2362 97.2421 51.4754 96.0684 51.4754C95.5981 51.4754 95.1444 51.4376 94.7781 51.4082L94.5659 51.3915C94.2579 51.3663 93.9083 51.3579 93.542 51.3537C92.7887 51.3411 92.0145 51.3243 91.3777 51.1648C90.1 50.8417 89.9127 50.0947 89.7171 49.3057C89.6588 49.0749 89.6005 48.8357 89.5131 48.5797C89.3133 48.0132 88.8014 47.7362 88.2146 47.4173C87.6568 47.1151 87.0783 46.8046 86.7162 46.2087C86.5456 45.9317 86.4457 45.6631 86.3458 45.4071C86.2043 45.0378 86.0669 44.6853 85.7381 44.337C85.4884 44.0684 85.2054 43.8334 84.9099 43.5816C84.477 43.2165 84.0234 42.8388 83.6654 42.3436C82.9163 41.3196 81.9798 39.9599 81.318 38.5247C81.2514 38.3904 81.1973 38.2435 81.139 38.0883C80.7853 37.6644 80.3816 37.3077 79.8696 37.0685C79.7781 37.0265 79.6823 36.9887 79.5866 36.951C79.5533 36.9552 79.52 36.9594 79.4867 36.9636C79.2911 36.9887 79.0872 37.0139 78.8832 37.0139C77.4556 37.0097 76.2611 36.5187 75.2206 35.5241C75.0708 35.3773 74.9376 35.2136 74.8086 35.0541C74.5505 34.731 74.3549 34.5128 74.1343 34.4288H74.1468V34.4204C74.1176 34.412 74.0885 34.4036 74.0511 34.3952C74.0302 34.3952 74.0094 34.3869 73.9845 34.3869C74.0094 34.3869 74.0302 34.3911 74.0511 34.3952C74.0885 34.4036 74.1176 34.412 74.1468 34.4204C74.3965 34.2777 74.6587 34.1518 74.9251 34.0343C75.2331 33.8917 75.5536 33.7574 75.874 33.6063C76.1945 33.4552 76.515 33.2915 76.8188 33.0775C77.4182 32.6663 77.9551 32.1333 78.3297 31.5038C78.7084 30.8743 78.929 30.1819 79.0372 29.4768C78.6918 30.0979 78.3546 30.7064 77.9384 31.2268C77.5222 31.7514 77.0269 32.192 76.4775 32.5697C75.9448 32.939 75.3038 33.2286 74.7003 33.6063C74.4007 33.7951 74.0968 34.005 73.8388 34.2568H73.8513C73.793 34.3155 73.7139 34.3827 73.6099 34.4918H73.6224C73.6016 34.5211 73.5766 34.5463 73.5558 34.5715C73.1937 34.8862 72.7567 35.5367 72.5652 35.8263C72.5069 35.9144 72.457 35.99 72.4112 36.0571C71.9242 36.7537 71.5122 37.5301 71.1085 38.2771C70.6964 39.0493 70.2677 39.8508 69.7516 40.5894C69.5311 40.9042 69.298 41.2189 69.0774 41.5253C68.5072 42.3016 67.9203 43.1032 67.4708 43.9593C67.1254 44.6224 66.909 45.2267 66.8091 45.8016C66.7009 46.4311 66.6884 46.7584 66.6925 46.9179C66.8007 46.9053 66.9173 46.8969 67.013 46.9179C67.3876 47.0018 67.6706 47.2788 67.808 47.4383C67.9453 47.5977 68.0036 47.774 68.041 47.9041C68.0577 47.9586 68.0785 48.0132 68.0951 48.0468C68.1284 48.0552 68.195 48.0636 68.245 48.072C68.3033 48.0761 68.3698 48.0845 68.4364 48.1013C68.6862 48.1559 68.9234 48.2482 69.1565 48.3405L69.2605 48.3825C69.6934 48.5504 70.2844 48.7812 70.5175 49.2848C70.763 49.8009 70.7963 50.2332 70.6215 50.5941C70.3218 51.2236 69.477 51.4208 68.8027 51.5845C68.0244 51.7691 66.8382 51.9832 65.6062 51.9832C64.5782 51.9832 63.7083 51.8321 63.0216 51.5257C62.4722 51.2823 61.5191 50.7704 61.2943 50.0569C61.0904 49.4107 61.3776 48.9071 61.6107 48.5042C61.6939 48.3615 61.773 48.223 61.8271 48.0887C61.9228 47.8537 61.9436 47.7404 61.9478 47.6901C61.9145 47.6733 61.8604 47.6523 61.8188 47.6313C61.6356 47.5474 61.3817 47.4383 61.132 47.1781C60.4952 46.515 60.7949 45.2896 60.8615 45.0504C61.028 44.4587 61.2486 43.9509 61.4608 43.4599C61.7938 42.6961 62.1059 41.9785 62.1434 41.0469C62.21 39.4773 62.6262 38.0169 63.0216 36.6069C63.2547 35.7843 63.4961 34.9324 63.6709 34.0595C63.7916 33.4426 63.7083 33.2244 63.6459 33.1489C63.5751 33.0649 63.4128 33.0188 63.1631 33.0188C62.9716 33.0188 62.7386 33.0439 62.4056 33.0943C61.877 33.174 61.2694 33.2118 60.541 33.2118C60.0041 33.2118 59.4672 33.1908 58.9886 33.174C58.8179 33.1698 58.6431 33.1656 58.4683 33.1614C58.0188 33.1573 57.5568 33.1489 57.0907 33.0691C56.1958 32.9097 55.2427 32.5152 54.3229 32.1291C53.8318 31.9235 53.3656 31.7304 52.9244 31.5793C52.6123 31.4702 52.2876 31.3317 51.9463 31.1849C51.1722 30.8575 50.3731 30.5134 49.6863 30.5134H49.6447C49.0038 30.526 48.6666 31.0548 48.2712 31.6717C48.1547 31.8521 48.0382 32.0326 47.9091 32.2088C47.5221 32.7334 47.2932 33.2496 47.1475 33.9462C47.0767 34.2861 47.0143 34.6345 46.9477 34.9996C46.723 36.2334 46.494 37.5049 45.8947 38.6212C45.7324 38.9192 45.5534 39.2004 45.3828 39.4731C44.8417 40.3124 44.3755 41.0385 44.5795 42.0498C44.7751 43.036 45.6741 43.7579 46.5481 44.4587C46.8728 44.7189 47.1766 44.9665 47.4513 45.2225C48.5251 46.2422 49.3409 46.5864 50.6769 46.5864C50.8059 46.5864 50.9433 46.5822 51.089 46.5738C51.2346 46.5654 51.372 46.557 51.501 46.5444C51.6841 46.5318 51.8631 46.515 52.0379 46.515C52.4583 46.515 52.9577 46.5906 53.4821 47.1571C53.8526 47.5558 54.4186 48.4538 54.3687 49.1673C54.2729 50.5312 52.5915 50.5731 51.3637 50.6025C51.0307 50.6109 50.7144 50.6193 50.4896 50.6529C50.2274 50.6906 49.9652 50.7368 49.6905 50.783C48.908 50.9172 48.0964 51.0557 47.2723 51.0557C46.9102 51.0557 46.5773 51.0306 46.2485 50.9802C45.3703 50.8375 45.1122 50.5102 44.7501 50.0569C44.6544 49.9394 44.5504 49.8051 44.4172 49.6583C44.001 49.1924 43.5223 48.9323 42.9688 48.6301C42.8689 48.5755 42.7648 48.521 42.6649 48.4622C41.4122 47.7614 40.4174 46.8885 39.3395 45.9065C39.1064 45.6925 38.8317 45.4575 38.5403 45.2141C37.6996 44.5006 36.7465 43.6949 36.2221 42.8724C35.6311 41.9533 35.8308 40.7321 36.0056 39.6536C36.0681 39.2633 36.1305 38.8982 36.1472 38.5835C36.2304 36.888 36.0181 35.5661 35.4771 34.4162L35.4354 34.3281C35.2898 34.0176 35.0442 33.493 34.757 33.3755C34.7112 33.3587 34.6738 33.3461 34.6446 33.3377H34.5614C34.4907 33.3419 34.4282 33.4132 34.2784 33.6147C34.1202 33.8245 33.9204 34.0889 33.5875 34.261C32.9757 34.5799 32.3181 34.6764 31.6854 34.7687C30.9404 34.8779 30.2412 34.9786 29.696 35.4402C29.3672 35.7172 29.0925 36.0235 28.8219 36.3509C28.3516 37.3329 27.361 38.2603 26.5619 38.6506C26.2123 38.8185 25.846 38.9024 25.4964 38.9821C25.4839 38.9821 25.4756 38.9863 25.4673 38.9905C24.9803 39.1836 24.4809 39.3892 24.0813 39.6662C23.4029 40.1404 23.0075 40.837 22.5955 41.6386C22.2958 42.2135 22.2001 42.7423 22.0877 43.3592C22.0378 43.6445 21.9795 43.9383 21.9046 44.253C21.8713 44.3789 21.838 44.5048 21.8047 44.6307C21.6132 45.361 21.4301 46.0576 21.6424 46.7458C21.8505 46.7374 22.0669 46.6493 22.2958 46.5612C22.6205 46.4353 22.995 46.2884 23.4196 46.3262C24.2478 46.3933 25.0053 46.9557 25.5547 47.3627C26.1457 47.8034 26.5702 48.6889 26.5869 49.5198C26.5994 50.1577 26.3746 50.699 25.9501 51.0473C25.5131 51.404 24.7056 51.4922 24.0522 51.5677C23.9065 51.5845 23.7733 51.6013 23.6693 51.6139C23.0034 51.7146 22.275 51.8069 21.5175 51.7985C21.4343 51.7985 21.351 51.7985 21.2678 51.7985C20.0192 51.7901 18.3086 51.7775 17.78 50.3381C17.5511 49.7086 17.4304 49.1085 17.3138 48.5252C17.1224 47.5768 16.9476 46.6829 16.3066 45.8352C15.4575 44.7063 15.6407 43.6278 15.828 42.4905C15.8654 42.2681 15.9029 42.0372 15.9362 41.798C16.0527 40.9587 16.1068 40.2537 15.9903 39.5487C15.9653 39.385 15.8946 39.1752 15.8196 38.9528C15.6615 38.4701 15.4825 37.9246 15.5991 37.4588C15.8529 36.4558 16.7894 36.1159 17.6135 35.8179C18.0463 35.6626 18.4542 35.5115 18.7372 35.2933C18.4376 33.0691 19.449 30.7904 20.2606 28.9481C20.5144 28.3773 20.7142 27.7688 20.9307 27.1226C21.2803 26.0692 21.6424 24.9781 22.2459 24.0632L22.454 23.7443C23.1365 22.7077 23.8399 21.6376 24.4809 20.5549C24.5725 20.3996 24.664 20.2527 24.7514 20.1058C25.1219 19.4931 25.4715 18.9182 25.7253 18.2216C26.0875 17.2354 26.4537 16.459 26.924 15.7246C25.9959 15.7792 24.2312 15.7959 20.7975 15.8337C17.5136 15.8673 13.7886 15.9051 13.0394 16.0268C10.8626 16.3835 5.58513 17.6508 3.58734 21.7551C2.85898 23.2533 2.46774 25.6789 3.32929 27.4667C3.95776 28.7676 6.0596 30.9415 7.36233 31.0548C7.53713 31.0674 7.70362 31.0841 7.86177 31.0967C9.49747 31.231 10.5796 31.3233 12.1362 32.3851C13.1892 33.1027 14.3213 34.1812 15.6032 35.6962L15.982 36.1452L15.4159 36.2921C14.0216 36.653 12.5816 37.0265 11.1581 37.0265C10.1467 37.0265 9.21861 36.8419 8.32376 36.46C7.21249 35.9858 6.47997 35.6752 5.94723 34.4918C5.88896 34.3659 5.86815 34.1938 5.83485 33.8749C5.81404 33.6986 5.78491 33.3923 5.74329 33.2496C3.3834 32.3935 1.72273 30.9498 0.802917 28.9607C-0.0378195 27.1477 -0.22095 24.9277 0.266011 22.3804C0.636435 20.4374 1.65198 18.7336 3.20027 17.4494C8.63176 12.9423 14.9623 12.6527 21.659 12.3463L22.5372 12.3044C25.3924 12.1701 27.5691 11.7378 30.3078 10.76C33.3544 9.67311 35.9099 8.8296 38.7734 8.67432H38.8358C39.5809 8.63656 40.3758 8.61557 41.1957 8.61557C43.6222 8.61557 46.082 8.77924 48.4585 8.93871C50.8267 9.09818 53.274 9.25765 55.6797 9.25765C55.9835 9.25765 56.2832 9.25765 56.5912 9.24926C59.7169 9.1947 62.8218 8.67852 65.8268 8.17913C67.1087 7.9651 68.4323 7.74688 69.7516 7.56642L69.9056 7.54544C71.6537 7.30204 73.3518 6.86979 75.0749 6.55504C75.1332 6.54665 75.1956 6.52986 75.2539 6.51727C75.2497 6.51727 75.2456 6.52567 75.2414 6.52987C75.154 6.59701 75.0624 6.66416 74.9792 6.7355C74.717 6.96211 74.4673 7.20132 74.2342 7.46151C74.0053 7.72589 73.793 7.99867 73.5974 8.28824C73.3976 8.5778 73.227 8.87996 73.0688 9.19051C72.9107 9.50105 72.765 9.82 72.6484 10.1515C72.5277 10.4789 72.4279 10.8188 72.3446 11.1587C72.303 11.3308 72.2697 11.5028 72.2364 11.6791L72.1573 12.1827C71.9409 13.5046 71.6704 14.8265 71.1293 16.0268C70.8504 16.6185 70.505 17.185 70.0055 17.5963C69.76 17.8061 69.4728 17.9614 69.1606 18.0663C68.8485 18.1712 68.5155 18.209 68.1784 18.1964C68.5072 18.2677 68.8568 18.2845 69.1981 18.2216C69.5435 18.1628 69.8765 18.0201 70.172 17.8271C70.4675 17.6341 70.7256 17.3823 70.9545 17.1137C71.1834 16.8409 71.3707 16.5429 71.5413 16.2366C71.8785 15.6239 72.1157 14.965 72.3113 14.2978C72.4112 13.9662 72.4944 13.6305 72.5652 13.2948C72.6401 12.959 72.7026 12.6191 72.7608 12.2834L72.8399 11.7798C72.8649 11.6203 72.8982 11.4609 72.9315 11.2972C73.0022 10.9783 73.0938 10.6635 73.202 10.3488C73.3061 10.0382 73.4226 9.73187 73.5599 9.42971C73.6973 9.12756 73.8471 8.83799 74.0136 8.55262C74.1759 8.26725 74.359 7.99028 74.5588 7.72589C74.7503 7.46151 74.9625 7.20552 75.1956 6.96631C75.3621 6.78586 75.5411 6.6138 75.7284 6.45433V6.43754H75.7575C75.924 6.29066 76.0988 6.15217 76.2778 6.02208C76.3943 5.95493 76.5108 5.89198 76.6315 5.82903C77.1185 5.56465 77.3557 5.21213 77.6471 4.77149C77.7969 4.54068 77.9551 4.30567 78.159 4.06227C78.5835 3.56287 79.0663 3.05928 79.7531 2.72355C79.9529 2.62284 80.161 2.5431 80.3857 2.48015C81.2722 2.22416 82.1504 1.99754 83.1452 2.02272C83.2992 2.02272 83.449 2.02692 83.5947 2.02692C84.169 2.02692 84.7143 2.03531 85.3594 2.19898C85.8963 2.33747 86.3167 2.2913 86.8993 2.02272C87.2573 1.85906 87.6111 1.6786 87.9648 1.50234C88.1729 1.39743 88.3769 1.29252 88.5808 1.1918C89.7254 0.63365 91.0781 0.0629131 92.6596 0.356675C93.4338 0.499359 94.2121 0.369265 95.032 0.22658C95.0903 0.213991 95.1444 0.201401 95.2027 0.193008C95.9726 0.0629131 96.7676 -0.0629847 97.5958 0.0503234C98.216 0.134255 98.8153 0.25176 99.3772 0.793121C99.6228 1.03233 99.7684 1.33448 99.9016 1.60306C99.9932 1.79191 100.097 2.01013 100.189 2.06889C100.359 2.178 100.609 2.23255 100.871 2.28711C101.246 2.36684 101.671 2.45917 102.041 2.74034C102.632 3.19357 103.106 3.88181 103.414 4.72953C103.51 4.98552 103.564 5.27928 103.627 5.59402C103.856 6.75228 104.06 7.28525 104.875 7.17194C104.959 7.15935 105.054 7.12998 105.154 7.07962C105.404 6.95792 105.674 6.7271 105.87 6.47951L106.436 5.7451L106.519 6.66835C106.594 7.45312 106.32 8.09939 105.741 8.51066C106.145 8.83799 106.673 9.33739 107.114 9.96268C107.289 10.1935 107.427 10.4495 107.56 10.6971C107.606 10.781 107.651 10.8649 107.697 10.9489L107.664 10.9699C107.751 11.1965 107.826 11.4315 107.872 11.6749C107.922 11.9477 107.93 12.0904 107.93 12.1785C107.93 12.1995 107.93 12.2163 107.93 12.233C107.943 12.2834 108.088 12.5226 108.18 12.6653C108.38 12.9884 108.675 13.3158 108.962 13.6263C109.042 13.7102 109.116 13.7942 109.187 13.8739C109.528 14.26 109.836 14.6209 110.132 14.9734C110.711 15.6617 111.26 16.3163 111.997 17.013C112.088 17.0969 112.176 17.1766 112.255 17.248C112.712 17.655 113.104 18.0034 112.979 18.8385L112.975 18.8427ZM73.8097 34.4036C73.7805 34.4036 73.7472 34.4036 73.7181 34.412C73.7514 34.412 73.7805 34.4078 73.8097 34.4036ZM103.231 9.42552C102.857 9.5682 102.461 9.65213 102.066 9.71508C101.267 9.84517 100.426 9.89134 99.5853 10.1641C99.3772 10.2355 99.1691 10.3194 98.9693 10.4243C98.7695 10.5292 98.5739 10.6593 98.4033 10.8104C98.0537 11.1125 97.7831 11.507 97.6208 11.9225C97.5334 12.1365 97.4751 12.3589 97.4502 12.5856C97.4252 12.8164 97.4377 13.0472 97.4918 13.2696C97.5542 13.492 97.6583 13.7018 97.7998 13.8697C97.9455 14.0376 98.1286 14.1635 98.32 14.2516C98.1619 14.1089 98.0287 13.9494 97.9413 13.7732C97.8497 13.5969 97.7956 13.4081 97.7831 13.2192C97.7582 12.8415 97.8664 12.4597 98.0453 12.1281C98.2285 11.784 98.4657 11.4902 98.7612 11.2594C99.0526 11.0328 99.398 10.8691 99.7684 10.7474C100.513 10.504 101.342 10.4159 102.162 10.1851C102.574 10.0718 102.982 9.92071 103.356 9.6941C103.727 9.46748 104.06 9.16533 104.268 8.79603C103.951 9.073 103.602 9.28703 103.227 9.42132L103.231 9.42552ZM34.5489 33.3503C34.5489 33.3503 37.8827 27.1645 44.1716 26.9211C44.1716 26.9211 37.683 25.8426 34.5489 33.3503ZM45.1996 23.14C45.0956 21.2767 45.4244 19.6862 44.6086 17.6341C44.4754 17.3025 44.1841 17.0885 43.9136 16.8577C45.3328 18.0831 44.3506 21.0417 44.9582 24.7179C45.5659 28.3941 49.9319 30.5092 49.9319 30.5092C49.2535 30.0014 48.6042 29.4559 48.0049 28.8515C46.4566 27.2988 45.3245 25.3768 45.1996 23.1442V23.14ZM65.2691 28.4655C65.0444 28.8557 64.9153 29.2922 64.8363 29.7244C64.6823 30.5973 64.7031 31.4786 64.8154 32.3431C64.8321 32.4522 64.8487 32.5571 64.8612 32.6537C64.8737 32.7544 64.882 32.8551 64.8904 32.9558C64.9112 33.1573 64.9153 33.3629 64.9153 33.5685C64.9153 33.9756 64.8862 34.3911 64.8363 34.8023C64.7488 35.6332 64.5699 36.4726 64.5241 37.3371C64.8196 36.5313 65.1193 35.734 65.3107 34.8821C65.4065 34.4582 65.4689 34.0218 65.4897 33.5811C65.5022 33.3587 65.498 33.1363 65.4897 32.9139C65.4814 32.8005 65.4689 32.6914 65.4564 32.5823C65.4439 32.469 65.4273 32.3599 65.4148 32.2592C65.3066 31.4367 65.2483 30.6015 65.3066 29.7832C65.3399 29.3761 65.4023 28.9691 65.5355 28.5914C65.6687 28.2137 65.8976 27.8612 66.2597 27.6261C66.0516 27.6807 65.856 27.794 65.6895 27.9409C65.523 28.0878 65.3856 28.2724 65.2691 28.4655Z" fill="#A89B68"/>
</svg>
