<svg width="43" height="63" viewBox="0 0 43 63" fill="none" xmlns="http://www.w3.org/2000/svg">
<path d="M7.16173 53.7819C10.0334 57.142 11.531 58.0061 15.9648 58.8462C15.8307 59.0163 15.7297 59.1674 15.6043 59.2963C14.6291 60.2909 13.5372 61.1293 12.245 61.6858C11.8062 61.8748 11.5293 62.1634 11.74 62.629C11.9594 63.11 12.3739 63.0516 12.7936 62.8592C14.7318 61.9796 16.2782 60.6276 17.5965 58.9991C18.9618 57.3138 20.005 55.4431 20.8565 53.4641C20.9401 53.2682 21.0342 53.0775 21.1613 52.8027C21.2849 53.1291 21.3824 53.3782 21.4747 53.6307C22.5161 56.4875 24.1757 58.9372 26.4518 60.9815C26.5807 61.0966 26.7113 61.21 26.8454 61.3182C27.1815 61.5896 27.5246 61.6171 27.8189 61.2753C28.094 60.9557 28.0139 60.6414 27.7161 60.3682C27.2895 59.9766 26.8628 59.5849 26.323 59.0901C28.3117 58.8651 30.1071 58.4425 31.7615 57.5698C33.4159 56.6971 34.8038 55.5204 35.9027 53.9262C36.0681 54.0602 36.2162 54.1684 36.352 54.2904C37.9837 55.7643 39.8332 56.917 41.8306 57.8326C42.0901 57.9512 42.5411 57.9477 42.7658 57.7983C43.1924 57.5131 42.9939 57.039 42.4366 56.7074C40.9703 55.8365 39.4901 54.9844 38.0795 54.0327C37.4091 53.5809 36.8553 52.9453 36.2963 52.3509C35.3716 51.3665 34.9048 50.1588 34.9136 48.8361C34.9362 45.5171 34.9762 42.1982 35.1034 38.8826C35.1817 36.8298 35.4534 34.7855 35.5875 32.7326C35.6223 32.1898 35.5387 31.616 35.389 31.0886C32.5556 21.0733 29.6996 11.0649 26.8471 1.05653C26.6016 0.19072 26.363 0.00346997 25.4801 3.42031e-05C24.113 -0.00511945 23.0612 0.57209 22.2967 1.76087C21.4277 0.510246 20.2087 0.0172131 18.7581 0.00862363C17.9587 0.00518786 17.6784 0.213052 17.4311 0.967203C14.1554 10.9601 10.8884 20.9565 7.60057 30.946C7.26447 31.9647 7.3916 32.9714 7.45081 33.997C7.69984 38.2951 7.94016 42.5933 8.15088 46.8931C8.18745 47.6387 8.08121 48.3894 8.03071 49.1384C7.90881 50.9542 6.90399 52.2907 5.59616 53.4572C4.10199 54.792 2.38666 55.7901 0.599926 56.6868C0.366573 56.8036 0.115803 57.0063 0.0165367 57.2297C-0.0513802 57.3826 0.0757484 57.7656 0.215065 57.8275C0.453648 57.934 0.840248 57.9821 1.044 57.8601C2.7454 56.8397 4.42764 55.7884 6.09596 54.7147C6.48952 54.4621 6.80821 54.0945 7.15998 53.7801L7.16173 53.7819ZM22.7425 7.43504C22.847 6.16381 22.901 4.79122 23.0908 3.43752C23.2319 2.436 23.7473 1.62859 24.8514 1.35029C25.3181 1.23176 25.5776 1.2644 25.7361 1.82615C28.5329 11.7383 31.3575 21.6437 34.1647 31.5541C34.2727 31.9372 34.318 32.3598 34.2884 32.7567C34.1369 34.8078 33.9035 36.8538 33.7868 38.905C33.5779 42.5606 33.2435 46.218 33.7189 49.8788C33.7433 50.0695 33.6858 50.3169 33.5709 50.4715C31.2809 53.5671 28.2577 55.3211 24.3081 55.3829C23.8327 55.3898 23.5732 55.2352 23.3677 54.7971C22.2114 52.3234 21.6506 49.738 21.7064 47.0117C21.7778 43.5622 21.8161 40.1126 21.8683 36.6631C21.9502 31.3068 22.032 25.9504 22.1191 20.5923C22.1417 19.2575 22.9724 18.1323 24.2228 17.763C24.4387 20.0082 24.6546 22.2432 24.8671 24.4782C25.184 27.804 25.4958 31.1315 25.8144 34.4591C25.8562 34.904 26.0234 35.2854 26.5685 35.2235C27.0735 35.1669 27.1519 34.7889 27.1118 34.3612C27.0178 33.3803 26.9272 32.3993 26.8349 31.4184C26.3926 26.7269 25.952 22.0353 25.5045 17.3438C25.4244 16.5106 24.9054 16.1378 24.1096 16.4041C23.4861 16.612 22.9045 16.9367 22.2201 17.2459C22.3368 15.0521 22.4238 12.8756 22.5875 10.7059C22.6241 10.2163 22.894 9.73013 23.1135 9.26974C23.3764 8.71315 23.8571 8.48295 24.484 8.46062C24.9141 8.44516 25.0708 8.57743 25.1631 9.00519C26.3125 14.2774 27.488 19.5427 28.6548 24.8114C28.9647 26.2115 29.2712 27.6133 29.583 29.0134C29.6787 29.4429 29.9104 29.7263 30.4049 29.6147C30.8716 29.5099 30.9326 29.1628 30.8647 28.7643C30.8507 28.6801 30.8333 28.5959 30.8142 28.5118C30.5338 27.2577 30.2499 26.0054 29.973 24.7513C28.7488 19.2111 27.5228 13.671 26.3108 8.12735C26.168 7.47283 25.8214 7.13785 25.1422 7.19454C24.3778 7.2581 23.6167 7.34743 22.7425 7.43848V7.43504ZM18.678 17.7217C18.8521 17.7819 18.9357 17.8008 19.0088 17.8386C20.3115 18.5034 20.8339 19.5959 20.8113 21.0012C20.6981 27.9002 20.5709 34.8009 20.4943 41.7C20.463 44.5036 20.5518 47.3089 20.5779 50.1125C20.5796 50.322 20.5605 50.5471 20.4821 50.7378C19.9684 52.0073 19.4285 53.2682 18.9113 54.5377C18.772 54.8813 18.5683 55.0187 18.1764 54.9964C14.5821 54.7989 11.6738 53.3094 9.46219 50.5127C9.31068 50.3203 9.24277 50.0077 9.25322 49.7551C9.30372 48.5148 9.50747 47.2711 9.45 46.0394C9.26192 41.9542 8.99722 37.8708 8.73078 33.7891C8.6646 32.7773 8.6646 31.8084 8.99896 30.8172C10.3643 26.7784 11.6721 22.7225 12.9991 18.6717C14.8328 13.0749 16.6701 7.47799 18.4829 1.87425C18.6536 1.34514 18.9131 1.21801 19.4233 1.32281C20.3463 1.51349 21.0777 1.98934 21.3285 2.87921C21.5374 3.62134 21.5897 4.42702 21.5862 5.20523C21.5827 6.26001 21.4608 7.31651 21.3929 8.3146C20.806 7.95041 20.3027 7.51578 19.7176 7.29761C18.3157 6.77537 17.6087 7.19282 17.2744 8.61695C16.0153 13.9733 14.758 19.3314 13.4989 24.6878C13.1854 26.0226 12.8772 27.3574 12.5515 28.6887C12.4453 29.1233 12.4941 29.4789 12.9782 29.6061C13.5041 29.7435 13.734 29.4326 13.8211 28.9687C13.8367 28.8846 13.8716 28.8055 13.8907 28.7214C15.2107 23.0936 16.529 17.4641 17.8508 11.8363C18.1172 10.699 18.3976 9.56522 18.6658 8.44859C19.7263 8.48467 20.4508 9.10139 20.7399 10.2438C21.3476 12.6488 20.9871 15.0762 20.9262 17.4623C20.261 17.1136 19.6636 16.7202 19.0088 16.4728C18.0093 16.0932 17.5425 16.4144 17.4067 17.4555C17.3736 17.7097 17.3388 17.9657 17.3109 18.2199C16.8477 22.4133 16.3862 26.6084 15.9247 30.8034C15.7906 32.0163 15.6531 33.2308 15.5242 34.4436C15.4789 34.8628 15.6391 35.1772 16.0919 35.2287C16.5447 35.2802 16.7728 35.0294 16.8146 34.5931C16.8251 34.4866 16.8512 34.3818 16.8634 34.2753C17.2726 30.5492 17.6801 26.8231 18.0894 23.097C18.2827 21.3344 18.4777 19.5702 18.6797 17.7252L18.678 17.7217ZM35.032 52.8817C34.8195 53.184 34.6367 53.4761 34.4225 53.7424C32.3797 56.2814 29.6369 57.4719 26.4292 57.7536C25.1039 57.8704 25.1039 57.8636 24.5188 56.6679C28.5538 56.5305 31.7615 54.7971 34.2831 51.729C34.5496 52.1396 34.7708 52.4797 35.032 52.8817ZM8.70466 51.6637C11.1427 54.4742 14.1606 56.0048 17.8264 56.2762C17.3405 57.532 17.1542 57.6643 15.9387 57.4873C15.256 57.3877 14.5681 57.2674 13.9099 57.0699C11.4178 56.3209 9.39776 54.9466 8.06728 52.6807C8.27278 52.3509 8.46434 52.0468 8.70292 51.6637H8.70466Z" fill="#A89B68"/>
</svg>
